<svg width="14" height="14" viewBox="0 0 14 14" fill="none" xmlns="http://www.w3.org/2000/svg">
<path d="M5.56641 1.71582C5.27344 2.00879 5.30273 2.44824 5.56641 2.74121L9.11133 6.08105H0.703125C0.292969 6.08105 0 6.40332 0 6.78418V7.72168C0 8.13184 0.292969 8.4248 0.703125 8.4248H9.11133L5.56641 11.7939C5.30273 12.0869 5.30273 12.5264 5.56641 12.8193L6.21094 13.4639C6.50391 13.7275 6.94336 13.7275 7.20703 13.4639L12.9199 7.75098C13.1836 7.4873 13.1836 7.04785 12.9199 6.75488L7.20703 1.07129C6.94336 0.807617 6.50391 0.807617 6.21094 1.07129L5.56641 1.71582Z" fill="#005DFF"/>
</svg>
