<svg width="16" height="16" viewBox="0 0 16 16" fill="none" xmlns="http://www.w3.org/2000/svg">
<path d="M8 0.12793C3.71875 0.12793 0.25 3.62793 0.25 7.87793C0.25 12.1592 3.71875 15.6279 8 15.6279C12.25 15.6279 15.75 12.1592 15.75 7.87793C15.75 3.62793 12.25 0.12793 8 0.12793ZM8 14.1279C4.53125 14.1279 1.75 11.3467 1.75 7.87793C1.75 4.44043 4.53125 1.62793 8 1.62793C11.4375 1.62793 14.25 4.44043 14.25 7.87793C14.25 11.3467 11.4375 14.1279 8 14.1279ZM11.3438 10.9717C11.4062 10.9092 11.4375 10.8154 11.4375 10.7217C11.4375 10.6279 11.4062 10.5654 11.375 10.5029L10.75 9.65918C10.625 9.47168 10.375 9.44043 10.1875 9.59668C9.90625 9.84668 9.15625 10.4404 8.15625 10.4404C6.53125 10.4404 5.6875 9.12793 5.6875 7.84668C5.6875 6.44043 6.625 5.31543 8.125 5.31543C9.0625 5.31543 9.78125 5.81543 10.0625 6.03418C10.2188 6.15918 10.5 6.12793 10.5938 5.94043L11.1875 5.06543C11.2188 5.00293 11.25 4.94043 11.25 4.84668C11.25 4.75293 11.1875 4.65918 11.125 4.59668C10.8438 4.31543 9.8125 3.50293 8.0625 3.50293C5.59375 3.50293 3.6875 5.37793 3.6875 7.84668C3.6875 10.3467 5.5 12.2842 8.09375 12.2842C9.90625 12.2842 11.0312 11.2842 11.3438 10.9717Z" fill="#7E92B3"/>
</svg>
